<svg xmlns="http://www.w3.org/2000/svg" width="158.406" height="26.875" viewBox="0 0 158.406 26.875">
  <defs>
    <style>
      .cls-1 {
        fill-rule: evenodd;
      }
    </style>
  </defs>
  <path id="cate-ttl.svg" class="cls-1" d="M728.343,859.653c3.648,0,6.976-1.984,6.976-6.688V851.11h-3.456v1.855c0,2.272-1.12,3.232-3.52,3.232s-3.551-.96-3.551-3.232V840.1c0-2.271,1.152-3.231,3.551-3.231s3.52,0.96,3.52,3.231v1.856h3.456V840.1c0-4.7-3.328-6.687-6.976-6.687-3.679,0-7.007,1.984-7.007,6.687v12.863C721.336,857.669,724.664,859.653,728.343,859.653Zm15.641-.32,1.5-4.224h8.255l1.472,4.224h3.648l-9.248-26.558-9.279,26.558h3.648Zm5.631-16.063,2.912,8.352h-5.856Zm21.3-6.079H776v-3.456H762.336v3.456h5.12v22.142h3.455V837.191ZM796,855.877H785.792v-8.095h9.567v-3.456h-9.567v-7.135H796v-3.456H782.336v25.6H796v-3.456Zm13.344,3.776c3.648,0,6.976-1.984,6.976-6.688v-6.431h-7.392v3.456h3.936v2.975c0,2.272-1.12,3.232-3.52,3.232s-3.551-.96-3.551-3.232V840.1c0-2.271,1.152-3.231,3.551-3.231s3.52,0.96,3.52,3.231v1.856h3.456V840.1c0-4.7-3.328-6.687-6.976-6.687-3.679,0-7.007,1.984-7.007,6.687v12.863C802.336,857.669,805.664,859.653,809.343,859.653Zm20.9,0c5.568,0,7.9-4.832,7.9-13.119s-2.336-13.119-7.9-13.119c-5.6,0-7.9,4.831-7.9,13.119S824.64,859.653,830.239,859.653Zm0-22.782c2.656,0,4.416,2.335,4.416,9.663s-1.76,9.663-4.416,9.663-4.447-2.336-4.447-9.663S827.584,836.871,830.239,836.871Zm28.208,4.7c0-4.8-3.136-7.839-7.648-7.839h-6.463v25.6h3.456v-9.887H850.8c0.256,0,.512-0.032.8-0.032l3.424,9.919h3.68L854.9,848.422A7.517,7.517,0,0,0,858.447,841.574Zm-10.655,4.416v-8.8H850.8c2.72,0,4.192,1.823,4.192,4.383,0,2.592-1.472,4.416-4.192,4.416h-3.007ZM875.911,833.8l-4.352,8.831-4.351-8.831h-3.872l6.5,13.151v12.383h3.456V846.95l6.464-13.151h-3.84Z" transform="translate(-721.344 -832.781)"/>
</svg>
