<svg xmlns="http://www.w3.org/2000/svg" width="34.84" height="12.24" viewBox="0 0 34.84 12.24">
  <defs>
    <style>
      .cls-1 {
        fill-rule: evenodd;
      }
    </style>
  </defs>
  <path id="ico-arrow-1.svg" class="cls-1" d="M1029.16,1736.11c0.15,0.01.74,0,.89-0.01a7.3,7.3,0,0,1,1.92.12,1.58,1.58,0,0,1,1.39.08c0.32,0.01.64,0.01,0.95,0.01,0.12,0.01.24,0.01,0.36,0.02,0.33,0.01.65,0.01,0.97,0.02,5.89-.36,11.78-0.24,17.67-0.12a7.353,7.353,0,0,1,2.93.46c0.33,0.02.66,0.04,1,.07a1.18,1.18,0,0,0-.79-1.33c-0.6-.41-1.25-0.74-1.88-1.09a2.825,2.825,0,0,1-1.36-1.43,0.829,0.829,0,0,1,.62-1.28c0.8-.14,1.6-0.52,2.42-0.01a9.515,9.515,0,0,1,3.27,2.53c0.65,0.53,1.27,1.09,1.93,1.59a2.477,2.477,0,0,1,.87,2.55,1.815,1.815,0,0,1-1.7,1.57,25.887,25.887,0,0,0-2.43,1.01,0.961,0.961,0,0,1-1.08.6,0.625,0.625,0,0,1-.64.38l-0.12.06-0.13-.01-0.03-.05a0.634,0.634,0,0,1-.72.55,0.478,0.478,0,0,1-.28.1,2.389,2.389,0,0,1-1.71.71,0.685,0.685,0,0,1-.66.35,0.757,0.757,0,0,1-1-.29,0.779,0.779,0,0,1,.17-1.04c0.15-.16.31-0.3,0.47-0.45a0.372,0.372,0,0,1,.3-0.31c0.11-.01.23-0.03,0.34-0.04v0.04a0.268,0.268,0,0,1,.34-0.35,0.291,0.291,0,0,1,.33-0.34,0.977,0.977,0,0,1,1.02-.69,0.362,0.362,0,0,1,.33-0.32c0.13-.23.27-0.45,0.4-0.67-0.36-.08-0.73-0.16-1.1-0.24-1.89.27-3.77-.16-5.66-0.12-3.16.05-6.32,0.01-9.49,0.02-2.78,0-5.56-.14-8.33.13a8.32,8.32,0,0,1-2.35-.21C1026.81,1738.81,1027.41,1736.01,1029.16,1736.11Z" transform="translate(-1027.5 -1731.38)"/>
</svg>
